<svg width="54" height="48" viewBox="0 0 54 48" fill="none" xmlns="http://www.w3.org/2000/svg">
<path d="M10.731 44.8C12.3757 43.7333 43.6245 43.7333 45.2691 44.8C46.9137 45.8667 45.2691 48 45.2691 48H10.731C10.731 48 9.08627 45.8667 10.731 44.8Z" fill="#992C1D"/>
<path d="M10.731 44.8C12.3757 43.7333 43.6245 43.7333 45.2691 44.8C46.9137 45.8667 45.2691 48 45.2691 48H10.731C10.731 48 9.08627 45.8667 10.731 44.8Z" stroke="black"/>
<rect x="25" y="39" width="3" height="6" fill="#70181C"/>
<g opacity="0.99">
<path d="M0.0648246 1.08813C0.0657656 0.536511 0.51321 0.0898317 1.06483 0.0898367L51.9999 0.0902932C52.5522 0.0902982 52.9999 0.538007 52.9999 1.09028L53.0003 37.9729C53.0003 38.5259 52.5515 38.9738 51.9986 38.9729L1.00034 38.8859C0.44806 38.885 0.00110965 38.4365 0.00205182 37.8842L0.0648246 1.08813Z" fill="#891F7D"/>
<path d="M0.0648246 1.08813C0.0657656 0.536511 0.51321 0.0898317 1.06483 0.0898367L51.9999 0.0902932C52.5522 0.0902982 52.9999 0.538007 52.9999 1.09028L53.0003 37.9729C53.0003 38.5259 52.5515 38.9738 51.9986 38.9729L1.00034 38.8859C0.44806 38.885 0.00110965 38.4365 0.00205182 37.8842L0.0648246 1.08813Z" stroke="black"/>
</g>
<path d="M29 36.5C29 37.0523 27.8807 37.5 26.5 37.5C25.1193 37.5 24 37.0523 24 36.5C24 35.9477 25.1193 35.5 26.5 35.5C27.8807 35.5 29 35.9477 29 36.5Z" fill="#FFC1C1"/>
<rect x="2" y="2" width="49" height="32" rx="1" fill="#B21A1A"/>
</svg>
